<svg width="18" height="18" viewBox="0 0 18 18" fill="none" xmlns="http://www.w3.org/2000/svg">
<path d="M9.01925 0C4.03029 0 0 4.12139 0 9.2231C0 13.3045 2.58252 16.7656 6.16283 17.9861C6.61281 18.0661 6.78889 17.786 6.78889 17.5459C6.78889 17.3258 6.76933 16.6056 6.76933 15.8253C4.49984 16.2455 3.91291 15.2651 3.73683 14.745C3.639 14.4849 3.18902 13.6646 2.81729 13.4445C2.50426 13.2645 2.05428 12.8443 2.79773 12.8243C3.50205 12.8043 4.01073 13.4845 4.18681 13.7646C5.00852 15.1651 6.29978 14.765 6.80846 14.5249C6.88672 13.9247 7.12149 13.5246 7.37583 13.2845C5.36068 13.0444 3.26728 12.2641 3.26728 8.72294C3.26728 7.7226 3.61944 6.88232 4.18681 6.2421C4.08899 6.00202 3.77595 5.0617 4.28463 3.80128C4.28463 3.80128 5.04765 3.5612 6.76933 4.7416C7.49322 4.54153 8.25623 4.42149 9.01925 4.42149C9.78227 4.42149 10.5453 4.52152 11.2692 4.7416C12.9908 3.54119 13.7539 3.80128 13.7539 3.80128C14.243 5.0617 13.9299 6.02203 13.8517 6.2421C14.4191 6.88232 14.7712 7.70259 14.7712 8.72294C14.7712 12.2641 12.6583 13.0444 10.6431 13.2845C10.9757 13.5646 11.2496 14.1248 11.2496 14.985C11.2496 16.2255 11.23 17.2058 11.23 17.5259C11.23 17.766 11.4061 18.0661 11.8561 17.966C15.4169 16.7456 17.9994 13.2845 17.9994 9.2031C18.0581 4.12139 14.0082 0 9.01925 0Z" fill="black"/>
</svg>
