<svg width="18" height="18" viewBox="0 0 18 18" fill="none" xmlns="http://www.w3.org/2000/svg">
<path d="M9 0.75C13.5563 0.75 17.25 4.44365 17.25 9C17.25 9.13805 17.247 9.2756 17.2402 9.41211C17.1907 10.4153 15.8545 10.1001 15.2246 10.0059C14.5283 9.9017 13.5971 9.69934 12.79 9.2959C12.4695 9.13567 12.1053 8.8111 11.8086 8.42285C11.5026 8.02232 11.211 7.48065 11.1172 6.84668C11.0206 6.19386 11.1403 5.47801 11.6064 4.78613C11.9115 4.33337 12.3524 3.91051 12.9424 3.52051C11.8333 2.72126 10.4715 2.25 9 2.25C8.37461 2.25 7.76906 2.33498 7.19434 2.49414L9.02051 5.09375C9.27336 5.45366 9.29307 5.92779 9.07129 6.30762L7.70215 8.65234L7.71289 11.0176C7.71579 11.7236 7.07486 12.2577 6.38086 12.1279L3.70117 11.627L2.97461 12.0459C4.08776 14.2436 6.36798 15.75 9 15.75C9.11337 15.75 9.22601 15.7467 9.33789 15.7412C9.7516 15.7208 10.1037 16.0404 10.124 16.4541C10.1443 16.8677 9.82566 17.2198 9.41211 17.2402C9.2756 17.247 9.13806 17.25 9 17.25C4.44365 17.25 0.75 13.5563 0.75 9C0.75 4.44365 4.44365 0.75 9 0.75ZM9.66309 9.66309C9.87173 9.45448 10.1831 9.38762 10.459 9.49219L16.7207 11.8672C17.0097 11.9768 17.2022 12.2525 17.2051 12.5615C17.2078 12.8706 17.0204 13.1498 16.7334 13.2646L14.2549 14.2549L13.2646 16.7334C13.1499 17.0204 12.8706 17.2078 12.5615 17.2051C12.2524 17.2023 11.9768 17.0097 11.8672 16.7207L9.49219 10.459C9.38764 10.1831 9.45445 9.87172 9.66309 9.66309Z" fill="#363B45"/>
</svg>
