<svg width="18" height="19" viewBox="0 0 18 19" fill="none" xmlns="http://www.w3.org/2000/svg">
<path fill-rule="evenodd" clip-rule="evenodd" d="M1.88138 16.6316L7.80773 18.2196C8.45778 18.3937 9.15041 18.3026 9.73323 17.9661L14.6501 15.1273C15.2329 14.7908 15.6582 14.2366 15.8324 13.5865L17.9129 5.8219C18.2756 4.46823 17.4723 3.07682 16.1186 2.71411L6.31447 0.087093C4.9608 -0.275622 3.56939 0.527707 3.20667 1.88138L0.0870931 13.5238C-0.275622 14.8775 0.527707 16.2689 1.88138 16.6316Z" fill="#111111"/>
<path d="M15.8332 13.584L11.9524 12.5441C10.5987 12.1814 9.20728 12.9847 8.84457 14.3384L7.80469 18.2193L7.80774 18.2201C8.4578 18.3943 9.15042 18.3031 9.73324 17.9666L14.6501 15.1279C15.2329 14.7914 15.6582 14.2371 15.8324 13.5871L15.8332 13.584Z" fill="#AAAAAA"/>
</svg>
