<svg width="18" height="18" viewBox="0 0 18 18" fill="none" xmlns="http://www.w3.org/2000/svg">
<path d="M0.631149 3.5145C0.209627 3.12313 0 2.63869 0 2.06228C0 1.48588 0.210748 0.980109 0.631149 0.587617C1.05267 0.196245 1.59527 0 2.26007 0C2.92486 0 3.44616 0.196245 3.86657 0.587617C4.28809 0.978988 4.49771 1.4713 4.49771 2.06228C4.49771 2.65327 4.28697 3.12313 3.86657 3.5145C3.44504 3.90587 2.91029 4.10212 2.26007 4.10212C1.60985 4.10212 1.05267 3.90587 0.631149 3.5145ZM4.14347 5.75956V17.7586H0.353126V5.75956H4.14347Z" fill="#363B45"/>
<path d="M16.7634 6.94335C17.5896 7.84047 18.0021 9.0718 18.0021 10.6395V17.5451H14.4024V11.1262C14.4024 10.3356 14.1973 9.72109 13.7881 9.28374C13.3789 8.84639 12.8273 8.62658 12.1367 8.62658C11.4462 8.62658 10.8946 8.84527 10.4854 9.28374C10.0762 9.72109 9.87103 10.3356 9.87103 11.1262V17.5451H6.25V5.72439H9.87103V7.29212C10.2376 6.76954 10.732 6.35686 11.3531 6.05295C11.9742 5.74905 12.6726 5.59766 13.4495 5.59766C14.8329 5.59766 15.9383 6.04622 16.7634 6.94335Z" fill="#363B45"/>
</svg>
