<svg width="20" height="20" viewBox="0 0 20 20" fill="none" xmlns="http://www.w3.org/2000/svg">
<path fill-rule="evenodd" clip-rule="evenodd" d="M6.67057 2.33527C6.68053 2.34192 6.69053 2.34858 6.70055 2.35526L15.4912 8.21567C15.7455 8.38521 15.9814 8.5424 16.1625 8.68847C16.3515 8.84092 16.5743 9.05231 16.7026 9.36157C16.8721 9.77032 16.8721 10.2297 16.7026 10.6385C16.5743 10.9477 16.3515 11.1591 16.1625 11.3116C15.9814 11.4576 15.7455 11.6148 15.4912 11.7843L6.6706 17.6647C6.35969 17.872 6.08013 18.0584 5.84291 18.187C5.60552 18.3157 5.27968 18.4627 4.89936 18.44C4.4129 18.4109 3.96353 18.1704 3.66952 17.7818C3.43966 17.4779 3.38124 17.1253 3.3566 16.8564C3.33199 16.5877 3.33201 16.2517 3.33203 15.878L3.33203 4.15804C3.33203 4.14599 3.33203 4.13398 3.33203 4.122C3.33201 3.74834 3.33199 3.41234 3.3566 3.14366C3.38124 2.87478 3.43966 2.52211 3.66952 2.21827C3.96353 1.82962 4.4129 1.58912 4.89936 1.56008C5.27968 1.53737 5.60552 1.68438 5.84291 1.81303C6.08012 1.94158 6.35968 2.12798 6.67057 2.33527Z" fill="black"/>
</svg>
