<svg width="20" height="20" viewBox="0 0 20 20" fill="none" xmlns="http://www.w3.org/2000/svg">
<path fill-rule="evenodd" clip-rule="evenodd" d="M15.9686 3.49013C16.3423 3.22137 16.863 3.30636 17.1318 3.67997C18.4115 5.45889 19.1654 7.64261 19.1654 9.99994C19.1654 12.3573 18.4115 14.541 17.1318 16.3199C16.863 16.6935 16.3423 16.7785 15.9686 16.5098C15.595 16.241 15.51 15.7202 15.7788 15.3466C16.8613 13.8418 17.4987 11.9965 17.4987 9.99994C17.4987 8.00334 16.8613 6.15806 15.7788 4.65325C15.51 4.27964 15.595 3.75889 15.9686 3.49013Z" fill="black"/>
<path fill-rule="evenodd" clip-rule="evenodd" d="M12.643 5.98312C13.0205 5.71982 13.54 5.81238 13.8033 6.18986C14.5567 7.27004 14.9987 8.58462 14.9987 9.99994C14.9987 11.4153 14.5567 12.7299 13.8033 13.81C13.54 14.1875 13.0205 14.2801 12.643 14.0168C12.2656 13.7535 12.173 13.234 12.4363 12.8565C13.001 12.047 13.332 11.0634 13.332 9.99994C13.332 8.93652 13.001 7.95291 12.4363 7.14336C12.173 6.76588 12.2656 6.24642 12.643 5.98312Z" fill="black"/>
<path fill-rule="evenodd" clip-rule="evenodd" d="M8.65063 2.25972C9.04953 2.22833 9.43934 2.38979 9.69921 2.69406C9.93191 2.96651 9.96887 3.29422 9.98297 3.4533C9.99877 3.63161 9.99874 3.85307 9.9987 4.07839C9.9987 4.08873 9.9987 4.09907 9.9987 4.10942L9.9987 15.9215C9.99874 16.1468 9.99877 16.3683 9.98297 16.5466C9.96887 16.7057 9.93191 17.0334 9.69921 17.3058C9.43934 17.6101 9.04953 17.7716 8.65063 17.7402C8.29343 17.7121 8.03556 17.5065 7.91311 17.404C7.77585 17.289 7.61927 17.1324 7.45997 16.9731L4.79997 14.3131C4.72278 14.2359 4.68411 14.1975 4.65485 14.1708L4.65263 14.1688L4.64965 14.1686C4.61007 14.1668 4.55558 14.1666 4.44642 14.1666L2.97213 14.1666C2.76181 14.1666 2.55698 14.1667 2.38351 14.1525C2.19302 14.1369 1.96824 14.1002 1.74205 13.985C1.42845 13.8252 1.17348 13.5702 1.01369 13.2566C0.898444 13.0304 0.861721 12.8056 0.846157 12.6151C0.831984 12.4417 0.832008 12.2368 0.832033 12.0265L0.832036 7.99994C0.832036 7.99107 0.832034 7.98221 0.832033 7.97336C0.832008 7.76304 0.831984 7.55822 0.846157 7.38475C0.861721 7.19426 0.898444 6.96948 1.01369 6.74329C1.17348 6.42969 1.42845 6.17472 1.74205 6.01493C1.96824 5.89969 2.19302 5.86296 2.38351 5.8474C2.55698 5.83323 2.7618 5.83325 2.97212 5.83328C2.98097 5.83328 2.98983 5.83328 2.9987 5.83328H4.44642C4.55558 5.83328 4.61007 5.83308 4.64965 5.83127L4.65263 5.83113L4.65485 5.82911C4.68411 5.80241 4.72278 5.76402 4.79997 5.68683L7.43804 3.04876C7.44536 3.04144 7.45268 3.03412 7.45998 3.02681C7.61928 2.86747 7.77586 2.71085 7.91311 2.59594C8.03556 2.49342 8.29343 2.28783 8.65063 2.25972Z" fill="black"/>
</svg>
